# xmcd
#
# Track frame offsets:
#	150
#	11395
#	24605
#	37300
#	46650
#	56430
#	67010
#	80333
#	93983
#	106820
#	118403
#	134680
#
# Disc length: 1962
#
# Revision: 1
# Processed by: cddbd v1.5.1PL0 Copyright (c) Steve Scherf et al.
# Submitted via: CDex 1.40Beta9
# Normalized: r0:DSETVAR1,TDELIM( - )
#
DISCID=a007a80c
DTITLE=Various Artist - Country Goes To The Movies
DYEAR=1978
DGENRE=Country
TTITLE0=Tex Ritter - High Noon
TTITLE1=Robert Mitchum - Ballad Of Thunder Road
TTITLE2=Johnny Horton - North To Alaska
TTITLE3=Johnny Cash - Five Minutes To Live
TTITLE4=Hank Williams Jr. - Your Creatin' Heart
TTITLE5=Roger Miller - The Ballad Of Water Hole
TTITLE6=Johnny Cash - I Walk The Line
TTITLE7=Kris Kristofferson - Michoacan
TTITLE8=Eddie Rabbitt - Every Wich Way But Loose
TTITLE9=Willie Nelson - On The Road Again
TTITLE10=Mickey Gilley - Stand By Me
TTITLE11=Marty Robbins - Honkytonk Man
EXTD=YEAR: 1978 ID3G: 2
EXTT0=
EXTT1=
EXTT2=
EXTT3=
EXTT4=
EXTT5=
EXTT6=
EXTT7=
EXTT8=
EXTT9=
EXTT10=
EXTT11=
PLAYORDER=
